<?xml version="1.0" standalone="no"?><!DOCTYPE svg PUBLIC "-//W3C//DTD SVG 1.1//EN" "http://www.w3.org/Graphics/SVG/1.1/DTD/svg11.dtd"><svg t="1571218800355" class="icon" viewBox="0 0 1024 1024" version="1.1" xmlns="http://www.w3.org/2000/svg" p-id="3239" xmlns:xlink="http://www.w3.org/1999/xlink" width="128" height="128"><defs><style type="text/css"></style></defs><path d="M1000.458 901.719l-0.292-0.292-174.192-174.192c54.932-75.07 87.393-167.624 87.393-267.776 0-250.691-203.223-453.914-453.914-453.914-250.685 0-453.908 203.223-453.908 453.914 0 250.695 203.223 453.913 453.908 453.923 100.148 0 192.702-32.46 267.771-87.398l174.198 174.188c27.11 27.269 71.194 27.402 98.453 0.291 0.107-0.102 0.194-0.184 0.286-0.291 27.28-27.1 27.408-71.194 0.297-98.453z m-890.163-442.26c0-192.84 156.329-349.164 349.164-349.164 192.844 0 349.163 156.324 349.163 349.164 0 192.844-156.319 349.163-349.163 349.163-192.835 0-349.164-156.324-349.164-349.163z" fill="" p-id="3240"></path><path d="M270.853 412.355c-25.702-0.215-46.705 20.454-46.92 46.156l0.006 0.948c0 25.251 21.007 47.104 46.914 47.104h377.211a46.536 46.536 0 0 0 46.915-46.157v-0.947c0-25.247-21.013-47.104-46.915-47.104h-377.21z" fill="" p-id="3241"></path></svg>