<?xml version="1.0" standalone="no"?><!DOCTYPE svg PUBLIC "-//W3C//DTD SVG 1.1//EN" "http://www.w3.org/Graphics/SVG/1.1/DTD/svg11.dtd"><svg t="1571218539494" class="icon" viewBox="0 0 1024 1024" version="1.1" xmlns="http://www.w3.org/2000/svg" p-id="2495" xmlns:xlink="http://www.w3.org/1999/xlink" width="128" height="128"><defs><style type="text/css"></style></defs><path d="M1006.292461 921.586176c23.494759 23.409427 23.608535 61.439078 0.227552 84.962281a60.187542 60.187542 0 0 1-85.019169-0.28444l-145.860923-145.889367a477.575059 477.575059 0 0 1-294.537804 101.573587C215.804763 961.976681 0 746.171919 0 480.988341S215.804763 0 481.102117 0c265.297354 0 481.130561 215.747875 481.130561 480.988341 0 111.130777-38.257204 213.301689-101.829584 294.765356l145.889367 145.832479zM91.589737 480.988341c0 214.667002 174.731601 389.370159 389.51238 389.370159 214.752334 0 389.483936-174.703157 389.483935-389.370159S695.854451 91.646625 481.102117 91.646625 91.589737 266.292894 91.589737 480.988341z m551.614837-45.794869c24.348079 0 44.088228 20.479693 44.088228 45.823313 0 25.315176-19.740148 45.823313-44.088228 45.823312h-116.279145v116.279145c0 24.319635-20.536581 44.03134-45.823312 44.03134-25.315176 0-45.794869-19.740148-45.794869-44.03134v-116.279145h-116.336033c-24.376523 0-44.088228-20.536581-44.088227-45.823312 0-25.315176 19.768592-45.823313 44.088227-45.823313h116.336033V318.857439c0-24.348079 20.479693-44.002896 45.794869-44.002895 25.315176 0 45.823313 19.68326 45.823312 44.002895V435.193472h116.279145z" p-id="2496"></path></svg>